<mxfile host="app.diagrams.net" modified="2021-04-07T02:13:50.469Z" agent="5.0 (Windows NT 10.0; Win64; x64) AppleWebKit/537.36 (KHTML, like Gecko) Chrome/88.0.4324.104 Safari/537.36" etag="ntKEg-FSWssiJHXwYhK5" version="14.5.8" type="github">
  <diagram id="C5RBs43oDa-KdzZeNtuy" name="Page-1">
    <mxGraphModel dx="781" dy="509" grid="1" gridSize="10" guides="1" tooltips="1" connect="1" arrows="1" fold="1" page="1" pageScale="1" pageWidth="827" pageHeight="1169" math="0" shadow="0">
      <root>
        <mxCell id="WIyWlLk6GJQsqaUBKTNV-0" />
        <mxCell id="WIyWlLk6GJQsqaUBKTNV-1" parent="WIyWlLk6GJQsqaUBKTNV-0" />
        <mxCell id="4cwtlLug8kGohqriUpn6-13" value="函数库" style="shape=table;html=1;whiteSpace=wrap;startSize=30;container=1;collapsible=0;childLayout=tableLayout;fontStyle=1;align=center;strokeWidth=2;" vertex="1" parent="WIyWlLk6GJQsqaUBKTNV-1">
          <mxGeometry x="150" y="150" width="180" height="150" as="geometry" />
        </mxCell>
        <mxCell id="4cwtlLug8kGohqriUpn6-14" value="" style="shape=partialRectangle;html=1;whiteSpace=wrap;collapsible=0;dropTarget=0;pointerEvents=0;fillColor=none;top=0;left=0;bottom=0;right=0;points=[[0,0.5],[1,0.5]];portConstraint=eastwest;" vertex="1" parent="4cwtlLug8kGohqriUpn6-13">
          <mxGeometry y="30" width="180" height="40" as="geometry" />
        </mxCell>
        <mxCell id="4cwtlLug8kGohqriUpn6-15" value="光电任务" style="shape=partialRectangle;html=1;whiteSpace=wrap;connectable=0;fillColor=none;top=0;left=0;bottom=0;right=0;overflow=hidden;" vertex="1" parent="4cwtlLug8kGohqriUpn6-14">
          <mxGeometry width="60" height="40" as="geometry" />
        </mxCell>
        <mxCell id="4cwtlLug8kGohqriUpn6-16" value="编码器&lt;br&gt;任务" style="shape=partialRectangle;html=1;whiteSpace=wrap;connectable=0;fillColor=none;top=0;left=0;bottom=0;right=0;overflow=hidden;" vertex="1" parent="4cwtlLug8kGohqriUpn6-14">
          <mxGeometry x="60" width="60" height="40" as="geometry" />
        </mxCell>
        <mxCell id="4cwtlLug8kGohqriUpn6-17" value="不合格&lt;br&gt;任务" style="shape=partialRectangle;html=1;whiteSpace=wrap;connectable=0;fillColor=none;top=0;left=0;bottom=0;right=0;overflow=hidden;" vertex="1" parent="4cwtlLug8kGohqriUpn6-14">
          <mxGeometry x="120" width="60" height="40" as="geometry" />
        </mxCell>
        <mxCell id="4cwtlLug8kGohqriUpn6-18" value="" style="shape=partialRectangle;html=1;whiteSpace=wrap;collapsible=0;dropTarget=0;pointerEvents=0;fillColor=none;top=0;left=0;bottom=0;right=0;points=[[0,0.5],[1,0.5]];portConstraint=eastwest;" vertex="1" parent="4cwtlLug8kGohqriUpn6-13">
          <mxGeometry y="70" width="180" height="40" as="geometry" />
        </mxCell>
        <mxCell id="4cwtlLug8kGohqriUpn6-19" value="按钮处理" style="shape=partialRectangle;html=1;whiteSpace=wrap;connectable=0;fillColor=none;top=0;left=0;bottom=0;right=0;overflow=hidden;" vertex="1" parent="4cwtlLug8kGohqriUpn6-18">
          <mxGeometry width="60" height="40" as="geometry" />
        </mxCell>
        <mxCell id="4cwtlLug8kGohqriUpn6-20" value="工位管理" style="shape=partialRectangle;html=1;whiteSpace=wrap;connectable=0;fillColor=none;top=0;left=0;bottom=0;right=0;overflow=hidden;" vertex="1" parent="4cwtlLug8kGohqriUpn6-18">
          <mxGeometry x="60" width="60" height="40" as="geometry" />
        </mxCell>
        <mxCell id="4cwtlLug8kGohqriUpn6-21" value="周期任务" style="shape=partialRectangle;html=1;whiteSpace=wrap;connectable=0;fillColor=none;top=0;left=0;bottom=0;right=0;overflow=hidden;" vertex="1" parent="4cwtlLug8kGohqriUpn6-18">
          <mxGeometry x="120" width="60" height="40" as="geometry" />
        </mxCell>
        <mxCell id="4cwtlLug8kGohqriUpn6-22" value="" style="shape=partialRectangle;html=1;whiteSpace=wrap;collapsible=0;dropTarget=0;pointerEvents=0;fillColor=none;top=0;left=0;bottom=0;right=0;points=[[0,0.5],[1,0.5]];portConstraint=eastwest;" vertex="1" parent="4cwtlLug8kGohqriUpn6-13">
          <mxGeometry y="110" width="180" height="40" as="geometry" />
        </mxCell>
        <mxCell id="4cwtlLug8kGohqriUpn6-23" value="中断任务" style="shape=partialRectangle;html=1;whiteSpace=wrap;connectable=0;fillColor=none;top=0;left=0;bottom=0;right=0;overflow=hidden;" vertex="1" parent="4cwtlLug8kGohqriUpn6-22">
          <mxGeometry width="60" height="40" as="geometry" />
        </mxCell>
        <mxCell id="4cwtlLug8kGohqriUpn6-24" value="初始化" style="shape=partialRectangle;html=1;whiteSpace=wrap;connectable=0;fillColor=none;top=0;left=0;bottom=0;right=0;overflow=hidden;" vertex="1" parent="4cwtlLug8kGohqriUpn6-22">
          <mxGeometry x="60" width="60" height="40" as="geometry" />
        </mxCell>
        <mxCell id="4cwtlLug8kGohqriUpn6-25" value="..." style="shape=partialRectangle;html=1;whiteSpace=wrap;connectable=0;fillColor=none;top=0;left=0;bottom=0;right=0;overflow=hidden;" vertex="1" parent="4cwtlLug8kGohqriUpn6-22">
          <mxGeometry x="120" width="60" height="40" as="geometry" />
        </mxCell>
        <mxCell id="4cwtlLug8kGohqriUpn6-27" value="标准程序流程" style="swimlane;childLayout=stackLayout;horizontal=1;fillColor=none;horizontalStack=1;resizeParent=1;resizeParentMax=0;resizeLast=0;collapsible=0;strokeColor=none;stackBorder=10;stackSpacing=-12;resizable=1;align=center;points=[];fontColor=#000000;html=1;" vertex="1" parent="WIyWlLk6GJQsqaUBKTNV-1">
          <mxGeometry x="360" y="150" width="208" height="93" as="geometry" />
        </mxCell>
        <mxCell id="4cwtlLug8kGohqriUpn6-29" value="开启工位" style="shape=step;perimeter=stepPerimeter;fixedSize=1;points=[];" vertex="1" parent="4cwtlLug8kGohqriUpn6-27">
          <mxGeometry x="10" y="33" width="100" height="50" as="geometry" />
        </mxCell>
        <mxCell id="4cwtlLug8kGohqriUpn6-30" value="修改配置" style="shape=step;perimeter=stepPerimeter;fixedSize=1;points=[];" vertex="1" parent="4cwtlLug8kGohqriUpn6-27">
          <mxGeometry x="98" y="33" width="100" height="50" as="geometry" />
        </mxCell>
        <mxCell id="4cwtlLug8kGohqriUpn6-31" value="&lt;table border=&quot;1&quot; width=&quot;100%&quot; cellpadding=&quot;4&quot; style=&quot;width: 100% ; height: 100% ; border-collapse: collapse&quot;&gt;&lt;tbody&gt;&lt;tr style=&quot;background-color: #a7c942 ; color: #ffffff ; border: 1px solid #98bf21&quot;&gt;&lt;th align=&quot;left&quot;&gt;工位属性&lt;/th&gt;&lt;th align=&quot;left&quot;&gt;流程参数&lt;/th&gt;&lt;th align=&quot;left&quot;&gt;IO信息&lt;/th&gt;&lt;/tr&gt;&lt;tr style=&quot;border: 1px solid #98bf21&quot;&gt;&lt;td&gt;名称&lt;/td&gt;&lt;td&gt;不合格类型&lt;/td&gt;&lt;td&gt;本工位诊断信息&lt;/td&gt;&lt;/tr&gt;&lt;tr style=&quot;background-color: #eaf2d3 ; border: 1px solid #98bf21&quot;&gt;&lt;td&gt;类型&lt;/td&gt;&lt;td&gt;上一工位信息&lt;/td&gt;&lt;td&gt;上工位诊断信息&lt;/td&gt;&lt;/tr&gt;&lt;tr style=&quot;border: 1px solid #98bf21&quot;&gt;&lt;td&gt;ID&lt;/td&gt;&lt;td&gt;下一工位信息&lt;/td&gt;&lt;td&gt;调试信息&lt;/td&gt;&lt;/tr&gt;&lt;tr style=&quot;background-color: #eaf2d3 ; border: 1px solid #98bf21&quot;&gt;&lt;td&gt;序号&lt;/td&gt;&lt;td&gt;本工位信息&lt;/td&gt;&lt;td&gt;。。。&lt;/td&gt;&lt;/tr&gt;&lt;/tbody&gt;&lt;/table&gt;" style="text;html=1;strokeColor=#c0c0c0;fillColor=#ffffff;overflow=fill;rounded=0;" vertex="1" parent="WIyWlLk6GJQsqaUBKTNV-1">
          <mxGeometry x="240" y="380" width="280" height="160" as="geometry" />
        </mxCell>
        <mxCell id="4cwtlLug8kGohqriUpn6-32" value="工位数据结构" style="text;strokeColor=none;fillColor=none;html=1;fontSize=24;fontStyle=1;verticalAlign=middle;align=center;" vertex="1" parent="WIyWlLk6GJQsqaUBKTNV-1">
          <mxGeometry x="314" y="340" width="100" height="40" as="geometry" />
        </mxCell>
      </root>
    </mxGraphModel>
  </diagram>
</mxfile>
